<svg xmlns="http://www.w3.org/2000/svg" version="1.0" width="425" height="562" viewBox="0 0 425 562" preserveAspectRatio="xMidYMid meet"><default:g xmlns:default="http://www.w3.org/2000/svg" transform="translate(0.000000,562.000000) scale(0.050000,-0.050000)" fill="#325376" stroke="none"><default:path d="M4150 11141 c-38 -16 -717 -643 -1408 -1299 -169 -161 -331 -313 -360 -340 -71 -65 -472 -438 -822 -765 -159 -149 -318 -297 -353 -329 -665 -615 -1111 -1047 -1121 -1087 -26 -103 101 -221 197 -183 57 22 66 30 737 662 160 150 520 488 800 752 281 264 538 506 572 539 34 32 164 154 289 269 125 116 256 237 291 270 175 168 386 367 648 610 160 148 357 333 439 412 l149 144 160 -143 c88 -79 178 -162 201 -186 42 -43 869 -799 1069 -977 170 -151 1148 -1033 1184 -1069 18 -17 81 -75 140 -130 59 -54 167 -153 238 -220 129 -120 528 -489 647 -598 340 -311 393 -338 484 -240 112 121 108 127 -479 657 l-310 280 -1 605 -1 606 -445 -6 -445 -5 -4 -110 c-2 -60 -4 -140 -5 -177 -2 -93 -9 -87 -559 429 -84 78 -345 316 -582 529 -236 212 -434 392 -440 399 -22 27 -694 634 -748 676 -61 47 -97 52 -162 25z"/><default:path d="M3509 9887 c-739 -690 -807 -753 -1280 -1199 -164 -155 -353 -332 -419 -394 -66 -62 -302 -282 -524 -489 l-404 -375 4 -2720 4 -2720 46 -93 c25 -51 89 -134 143 -184 176 -165 -63 -154 3232 -148 l2919 5 80 43 c109 58 220 174 275 285 l45 92 5 2716 c5 2197 1 2721 -20 2740 -14 13 -71 65 -126 114 -278 250 -756 685 -1229 1120 -115 106 -250 228 -300 272 -49 43 -99 88 -110 99 -11 12 -114 106 -230 210 -115 104 -264 240 -330 301 -66 62 -238 220 -382 350 -144 131 -357 326 -472 433 -116 107 -215 195 -220 195 -4 0 -323 -294 -707 -653z m571 -957 c0 -24 12 -27 55 -15 73 20 237 11 288 -17 103 -55 -149 -128 -281 -82 -61 22 -62 21 -62 -46 0 -72 -3 -71 220 -95 54 -5 88 -95 36 -95 -19 0 -24 -25 -19 -90 l7 -90 799 0 c652 0 811 -5 868 -29 207 -87 309 -249 309 -494 0 -135 6 -162 48 -211 l48 -56 327 -10 c576 -18 657 -127 657 -880 0 -9 18 -20 40 -26 52 -13 61 -267 10 -287 -26 -10 -30 -202 -30 -1561 0 -1350 4 -1553 30 -1579 42 -42 44 -531 2 -565 -20 -17 -30 -96 -36 -298 -11 -367 -59 -463 -286 -568 l-100 -46 -2495 -5 c-2100 -5 -2495 -10 -2495 -33 0 -48 -67 -58 -101 -16 -26 33 -64 40 -230 48 -268 11 -395 79 -496 266 l-43 80 -5 2035 c-5 1782 -9 2035 -35 2035 -43 0 -44 510 -2 534 22 12 30 79 35 288 11 416 120 536 512 554 l185 9 0 -149 0 -148 -155 -5 c-221 -7 -232 -21 -242 -306 -6 -189 -2 -226 25 -241 37 -21 49 -503 12 -526 -12 -7 -20 -144 -20 -341 l0 -329 846 0 c631 0 852 6 870 24 31 31 31 110 -1 121 -20 7 -20 15 0 39 29 35 31 632 2 669 -20 25 -489 37 -628 16 -69 -11 -86 -23 -105 -76 -138 -376 -699 -311 -774 91 -81 431 555 653 752 262 56 -111 75 -130 123 -118 19 4 35 0 35 -11 0 -11 121 -17 295 -14 329 4 370 -3 400 -71 19 -40 34 -572 26 -862 -5 -169 51 -159 -947 -170 l-884 -10 0 -79 0 -78 560 -125 c783 -175 728 -172 1046 -50 186 72 291 102 360 102 l97 0 104 295 c143 404 139 472 -43 865 -102 220 -112 300 -40 300 56 0 56 1 59 136 3 152 58 287 169 413 102 116 132 99 147 -84 12 -156 37 -306 62 -370 11 -29 2 -35 -52 -35 -36 0 -61 -5 -54 -11 10 -11 361 21 468 42 63 13 67 45 36 272 -33 230 -29 257 32 257 186 0 428 -334 446 -615 16 -266 -8 -308 -277 -468 -343 -203 -427 -320 -549 -758 -82 -296 -83 -304 -48 -346 61 -71 84 -125 67 -153 -12 -19 9 -43 71 -82 158 -101 186 -241 69 -351 -53 -50 -55 -56 -26 -100 61 -93 -31 -287 -137 -287 -40 0 -50 -30 -17 -50 70 -43 -4 -217 -110 -261 -45 -19 -68 -45 -76 -83 -22 -108 -60 -136 -182 -135 l-110 1 -50 -115 c-183 -421 -537 -370 -506 73 11 151 8 169 -25 180 -20 6 -98 66 -174 133 -267 236 -257 232 -784 329 -260 48 -489 87 -508 87 -32 1 -35 -26 -35 -289 l0 -290 189 0 c171 0 189 4 201 40 16 51 101 53 128 3 17 -31 53 -39 209 -48 414 -25 592 -202 612 -612 10 -196 14 -209 67 -255 l56 -48 547 0 c492 0 557 -4 636 -38 178 -76 315 -304 315 -524 l0 -98 670 0 670 0 0 91 c0 124 -20 154 -161 239 -90 55 -127 68 -146 52 -38 -31 -104 21 -86 68 12 30 9 32 -16 11 -40 -33 -91 -13 -91 36 0 29 -11 35 -50 28 -60 -12 -83 32 -51 98 l22 47 -33 -45 c-18 -25 -45 -45 -60 -45 -28 0 -74 68 -57 85 6 5 -13 5 -42 0 -40 -8 -54 -1 -63 34 -6 24 -22 39 -37 34 -49 -20 -102 40 -75 84 18 29 18 42 2 48 -16 5 -16 18 1 49 19 36 15 47 -26 73 -46 31 -48 30 -69 -31 -54 -155 -227 -281 -193 -141 16 66 104 205 130 205 10 0 17 25 15 55 -3 42 6 56 39 61 28 4 46 25 54 60 25 124 193 261 193 158 0 -56 -109 -234 -144 -234 -14 0 -6 -19 19 -44 42 -42 45 -43 84 -7 23 21 41 30 41 21 0 -9 17 -1 37 17 44 40 103 24 103 -26 0 -27 12 -33 51 -26 40 8 54 1 63 -33 6 -23 21 -41 33 -40 66 8 77 -3 68 -65 -8 -55 -6 -59 17 -28 29 40 108 26 108 -20 0 -18 20 -29 50 -29 48 0 59 -17 51 -79 -4 -24 1 -24 27 -3 43 36 92 13 92 -42 0 -34 26 -61 102 -103 217 -122 316 -257 318 -433 1 -194 -36 -180 471 -180 545 0 509 -23 509 322 0 183 -6 238 -30 258 -16 14 -30 55 -30 92 l0 68 -325 0 c-501 1 -675 130 -675 497 0 57 -9 103 -19 103 -44 0 -161 128 -192 211 -114 297 161 614 461 532 459 -127 372 -774 -105 -773 -90 1 -112 -4 -80 -16 25 -10 92 -12 149 -6 l104 12 6 -95 c9 -141 67 -165 411 -165 246 0 265 3 265 38 0 20 14 48 30 62 26 22 30 108 25 608 l-5 582 -315 -2 c-362 -2 -415 -23 -415 -163 l0 -69 -95 13 c-52 7 -124 4 -160 -7 l-65 -19 0 94 c0 181 126 354 306 422 32 12 210 21 406 21 l349 0 -5 225 -6 225 -426 5 c-354 5 -427 11 -437 35 -17 46 -58 36 -83 -20 -33 -71 -137 -71 -164 1 l-20 51 -285 -2 c-451 -4 -655 -119 -655 -369 0 -56 24 -52 -320 -58 l-150 -3 -7 59 c-35 307 303 721 660 811 59 15 95 38 108 66 13 30 40 46 84 50 63 6 65 9 65 103 l0 96 -120 -28 c-137 -32 -346 -10 -397 41 -94 94 242 166 469 101 32 -9 45 -2 53 29 16 59 114 58 130 0 9 -36 19 -39 83 -25 209 49 500 -3 469 -83 -24 -62 -331 -95 -484 -51 -56 16 -65 15 -55 -12 7 -16 12 -61 12 -99 0 -63 5 -68 62 -68 45 0 65 -11 72 -40 17 -66 200 -58 226 10 28 73 112 68 156 -10 40 -71 51 -73 104 -20 37 37 67 40 450 40 l410 0 0 298 c0 246 -5 300 -30 309 -22 9 -30 45 -30 143 0 98 8 134 30 143 24 9 30 56 30 249 0 325 8 318 -356 318 -520 0 -724 149 -724 528 0 240 -45 292 -251 292 -84 0 -109 -7 -109 -30 0 -21 -21 -30 -70 -30 -94 0 -92 -46 5 -93 365 -180 237 -744 -171 -747 -419 -2 -546 558 -169 748 88 45 86 92 -5 92 -49 0 -70 9 -70 30 0 27 -55 30 -414 25 l-415 -5 -1 -67 c-3 -105 -45 -123 -291 -123 -238 0 -253 7 -273 128 l-11 72 -263 -1 c-291 0 -354 -20 -313 -97 18 -33 14 -49 -19 -82 -68 -68 -56 -192 20 -207 48 -10 60 -22 60 -62 0 -62 190 -80 213 -21 15 40 99 39 115 -2 22 -59 13 -379 -12 -404 -33 -33 -89 -30 -103 6 -22 57 -213 41 -213 -18 0 -38 -13 -52 -60 -62 -75 -17 -88 -142 -20 -210 21 -21 34 -53 27 -70 -16 -42 -410 -44 -445 -3 -28 34 -8 93 30 93 62 0 35 176 -27 184 -43 5 -56 18 -61 61 -8 65 -193 86 -217 25 -6 -16 -33 -30 -60 -30 -26 0 -53 14 -60 30 -6 17 -28 30 -49 30 -34 0 -38 17 -38 170 0 153 4 170 38 170 21 0 43 14 49 30 7 17 35 30 63 30 28 0 56 -13 63 -30 23 -61 203 -40 211 25 5 43 18 56 61 61 73 9 80 139 12 207 l-43 43 44 37 c25 19 53 66 63 103 64 229 233 313 632 314 l303 0 7 90 c5 63 0 90 -18 90 -33 0 -33 79 0 89 14 5 77 14 140 21 115 13 115 13 115 81 0 65 -2 67 -51 49 -112 -43 -309 -11 -309 49 0 45 165 75 276 50 56 -13 77 -10 90 12 21 38 94 37 94 -1z m-2130 -1310 c7 -12 26 -10 50 5 30 18 45 18 62 1 17 -17 33 -17 58 -1 82 51 102 9 96 -200 l-6 -195 -175 -3 -175 -3 0 194 c0 108 6 201 13 209 20 19 63 16 77 -7z m2939 -3190 c187 -282 81 -562 -195 -517 -236 39 -266 239 -83 560 49 86 89 170 89 188 0 69 29 55 75 -36 27 -52 78 -140 114 -195z"/><default:path d="M5060 7539 c0 -359 559 -389 639 -34 l16 72 -132 1 c-163 1 -172 -14 -99 -150 41 -75 51 -108 32 -108 -15 0 -49 40 -76 89 -72 133 -138 174 -271 169 -88 -4 -109 -11 -109 -39z"/><default:path d="M1950 6773 c-115 -53 -252 -273 -170 -273 11 0 20 16 20 35 0 59 75 161 142 196 147 76 398 -31 398 -170 0 -21 10 -45 23 -53 33 -20 4 90 -40 151 -88 121 -250 171 -373 114z"/><default:path d="M1970 6718 c-81 -47 -130 -106 -142 -171 -9 -50 -23 -67 -53 -67 -91 0 23 -227 146 -291 69 -35 207 -42 279 -13 141 56 271 304 160 304 -29 0 -40 13 -40 50 0 132 -232 257 -350 188z m153 -107 c-12 -42 -12 -75 -1 -82 31 -19 20 -61 -31 -116 -56 -60 -104 -73 -74 -19 12 22 11 46 -4 70 -19 30 -13 45 30 85 30 27 60 79 68 115 8 36 19 55 23 42 5 -13 0 -56 -11 -95z"/><default:path d="M4112 6600 c43 -17 67 -101 68 -235 0 -45 9 -65 31 -65 23 0 28 15 21 65 -6 36 -16 108 -22 160 -12 91 -15 95 -76 94 -55 -1 -58 -4 -22 -19z"/><default:path d="M3760 6525 c1 -126 27 -265 50 -265 18 0 20 22 8 85 -9 47 -17 119 -17 160 -1 41 -10 75 -21 75 -11 0 -20 -25 -20 -55z"/><default:path d="M6004 4029 c-24 -17 -57 -56 -72 -85 l-28 -54 88 0 88 -1 0 86 c0 93 -9 100 -76 54z"/><default:path d="M6220 3995 c1 -89 18 -108 105 -109 94 -1 98 36 13 116 -83 77 -118 75 -118 -7z"/><default:path d="M6120 3821 c0 -28 13 -41 41 -41 52 0 46 66 -6 76 -24 5 -35 -6 -35 -35z"/><default:path d="M5917 3705 c20 -36 95 -109 138 -133 18 -11 25 10 25 77 l0 91 -91 0 c-80 0 -88 -4 -72 -35z"/><default:path d="M6220 3649 l0 -90 59 30 c56 29 121 102 121 135 0 9 -40 16 -90 16 l-90 0 0 -91z"/><default:path d="M3131 3589 c-42 -43 -39 -135 6 -176 107 -98 260 18 193 147 -36 69 -143 84 -199 29z"/><default:path d="M1464 2761 c7 -672 -7 -635 251 -644 151 -5 168 -2 196 39 39 55 89 57 103 4 10 -39 27 -40 1041 -40 l1030 0 -10 102 c-18 190 -5 186 -681 198 -642 11 -632 9 -787 145 -112 99 -167 234 -167 417 0 275 -56 338 -295 338 -128 0 -140 -4 -161 -50 -13 -27 -33 -50 -45 -50 -41 0 -99 41 -99 71 0 23 -37 29 -191 29 l-191 0 6 -559z"/></default:g></svg>